<svg width="80" height="80" viewBox="0 0 80 80" fill="none" xmlns="http://www.w3.org/2000/svg">
<path d="M9.54662 40.0001C9.54662 31.8652 12.7144 24.2178 18.4665 18.4657C24.2186 12.7136 31.8665 9.54528 40.0009 9.54528C48.1353 9.54528 55.7832 12.7136 61.5353 18.4657C67.2873 24.2178 70.4557 31.8652 70.4557 40.0001C70.4557 56.7929 56.7937 70.4544 40.0009 70.4544C31.8665 70.4544 24.2186 67.2866 18.4665 61.5345C12.7144 55.7824 9.54662 48.1345 9.54662 40.0001ZM40.0009 71.1299C48.3159 71.1299 56.1333 67.8914 62.0133 62.012C67.8927 56.1319 71.1312 48.3151 71.1312 40.0001C71.1312 31.6851 67.8927 23.8677 62.0133 17.9882C56.1333 12.1088 48.3159 8.87031 40.0009 8.87031C22.8361 8.87031 8.87109 22.8348 8.87109 40.0001C8.87109 48.3151 12.109 56.1319 17.989 62.012C23.8685 67.8914 31.6858 71.1299 40.0009 71.1299" fill="#1478C7"/>
<path d="M49.8448 69.0881C49.8448 69.0881 45.7591 70.7169 39.9548 70.7169C34.1511 70.7169 30.0823 69.0881 30.0823 69.0881L27.25 77.4963C30.6097 78.6762 35.5695 79.6064 39.9621 79.6064C44.3553 79.6064 49.2574 78.6336 52.617 77.4536L49.8448 69.0881Z" fill="#1478C7"/>
<path d="M32.5704 19.2136V19.6804H34.57C34.57 19.6804 34.689 21.1425 32.5625 21.1504V21.6245C32.5625 21.6245 35.1552 21.7984 35.2265 19.6804V19.2136H32.5704Z" fill="#1478C7"/>
<path d="M46.4885 18.9614L46.4896 19.1483C46.7455 19.1775 46.7595 19.5158 46.7595 19.5158V20.6632H46.1535L46.1541 18.9614H45.2345L45.2356 19.1528C45.2906 19.1679 45.3394 19.1954 45.3793 19.2364C45.5055 19.3637 45.5061 19.5685 45.5061 19.5904V21.9166L45.4443 21.9396C44.7194 22.2061 44.0916 22.1837 44.0428 22.1814H43.7993L43.6843 22.1809L43.6859 19.6549H44.8204L44.8187 19.1887L42.7344 19.1881V19.3503C42.947 19.394 43.0256 19.5809 43.0362 19.6863V19.6903V19.6953C43.0362 19.6953 43.034 22.3907 43.034 22.3879C43.0357 22.4148 43.0542 22.6505 43.3353 22.6662C43.613 22.6813 44.0181 22.6673 44.022 22.6667H44.026L44.0304 22.6673C44.0361 22.6673 44.6033 22.692 45.3843 22.4592L45.5061 22.4227L45.5077 24.0739L46.1541 24.0717L46.1535 21.1333L46.7572 21.1322L46.7556 24.0801L47.4053 24.0756V18.9614H46.4885Z" fill="#1478C7"/>
<path d="M35.0341 23.8034C34.4052 23.8034 33.9069 23.4583 33.9069 23.0415C33.9069 22.6246 34.4052 22.2795 35.0341 22.2795C35.6625 22.2795 36.1613 22.6246 36.1613 23.0415C36.1613 23.4583 35.6625 23.8034 35.0341 23.8034ZM36.8099 20.162L36.8071 18.9614H35.8752V19.1482C36.1439 19.1959 36.1619 19.4641 36.1619 19.4641V21.7746C36.1636 21.8828 36.1714 21.9917 36.1821 22.0983C35.8707 21.9199 35.469 21.8133 35.0358 21.8133C34.0562 21.8133 33.2617 22.3648 33.2617 23.0448C33.2617 23.7248 34.0562 24.2764 35.0358 24.2764C35.5879 24.2764 36.0721 24.1109 36.3947 23.8387C36.6135 23.6373 36.7235 23.3938 36.7751 23.2058C36.8071 23.102 36.8026 22.9298 36.8026 22.9298L36.8071 20.6289H37.4417L37.4422 20.162H36.8099Z" fill="#1478C7"/>
<path d="M41.2251 23.6102H39.1676V22.4954H41.2251V23.6102ZM41.8759 20.1613L41.8771 18.9612H40.9586V19.148C40.9586 19.148 41.0613 19.1901 41.1028 19.2316C41.2296 19.3584 41.2296 19.5638 41.229 19.5857L41.2301 20.7336L41.229 20.7914L41.1701 20.8223C40.5361 21.0562 38.8966 21.0327 38.8288 21.0321H38.6694H38.574L38.5752 20.9362L38.6038 19.1795L37.6797 19.1811V19.3371C37.8222 19.3758 37.9187 19.5038 37.9445 19.6962L37.9456 19.7035V19.7102C37.9456 19.7102 37.9226 21.1275 37.9226 21.1258V21.2795C37.9238 21.3188 37.9395 21.5169 38.1684 21.5169H38.3148C38.3182 21.5169 38.3221 21.5169 38.326 21.5169H38.3496H38.7962C38.8136 21.5169 40.5434 21.4821 41.1129 21.3323L41.2324 21.3014L41.2307 22.0269L38.2699 22.0252V22.1907C38.3249 22.2059 38.3737 22.2333 38.4141 22.2743C38.5398 22.4017 38.5404 22.6065 38.5404 22.6272C38.5404 22.6272 38.5398 23.8425 38.5393 23.8436C38.5393 23.8436 38.5359 23.9469 38.5976 24.0114C38.6374 24.0535 38.6997 24.0742 38.7828 24.0742L41.8703 24.0737L41.8737 20.6343H42.5071V20.1613H41.8759Z" fill="#1478C7"/>
<path d="M0.702458 40.0003C0.702458 29.5038 4.78985 19.6352 12.2128 12.2128C19.6346 4.7904 29.5032 0.702446 40.0003 0.702446C50.4968 0.702446 60.3648 4.7904 67.7872 12.2128C75.2096 19.6352 79.2975 29.5038 79.2975 40.0003C79.2975 50.4968 75.2096 60.3648 67.7872 67.7878C60.3648 75.2102 50.4968 79.2981 40.0003 79.2981C29.5032 79.2981 19.6346 75.2102 12.2128 67.7878C4.78985 60.3648 0.702458 50.4968 0.702458 40.0003ZM40.0003 80C50.6842 80 60.7295 75.8397 68.2843 68.2843C75.8397 60.7295 80 50.6842 80 40.0003C80 29.3158 75.8397 19.271 68.2843 11.7157C60.7295 4.16088 50.6842 -3.23982e-06 40.0003 -3.23982e-06C29.3158 -3.23982e-06 19.2705 4.16088 11.7157 11.7157C4.16033 19.271 0 29.3158 0 40.0003C0 50.6842 4.16033 60.7295 11.7157 68.2843C19.2705 75.8397 29.3158 80 40.0003 80Z" fill="#1478C7"/>
<path d="M0.702458 40.0003C0.702458 29.5038 4.78985 19.6352 12.2128 12.2128C19.6346 4.7904 29.5032 0.702446 40.0003 0.702446C50.4968 0.702446 60.3648 4.7904 67.7872 12.2128C75.2096 19.6352 79.2975 29.5038 79.2975 40.0003C79.2975 50.4968 75.2096 60.3648 67.7872 67.7878C60.3648 75.2102 50.4968 79.2981 40.0003 79.2981C29.5032 79.2981 19.6346 75.2102 12.2128 67.7878C4.78985 60.3648 0.702458 50.4968 0.702458 40.0003ZM40.0003 80C50.6842 80 60.7295 75.8397 68.2843 68.2843C75.8397 60.7295 80 50.6842 80 40.0003C80 29.3158 75.8397 19.271 68.2843 11.7157C60.7295 4.16088 50.6842 -3.23982e-06 40.0003 -3.23982e-06C29.3158 -3.23982e-06 19.2705 4.16088 11.7157 11.7157C4.16033 19.271 0 29.3158 0 40.0003C0 50.6842 4.16033 60.7295 11.7157 68.2843C19.2705 75.8397 29.3158 80 40.0003 80Z" fill="#1478C7"/>
<path d="M76.586 38.6683C76.2297 38.3126 75.7573 38.1168 75.2546 38.1168C74.2149 38.1168 73.3711 38.9617 73.3711 40.0003C73.3711 40.5036 73.5663 40.9765 73.9226 41.3323C74.2783 41.688 74.7508 41.8838 75.2546 41.8838C75.7573 41.8838 76.2297 41.688 76.586 41.3323C76.9423 40.9765 77.1375 40.5036 77.1375 40.0003C77.1375 39.497 76.9423 39.024 76.586 38.6683Z" fill="#1478C7"/>
<path d="M6.14127 38.6956C5.78555 38.3399 5.31257 38.1441 4.80929 38.1441C3.77075 38.1441 2.92578 38.9891 2.92578 40.0276C2.92578 40.5309 3.12159 41.0039 3.47731 41.3602C3.83359 41.7153 4.30601 41.9111 4.80929 41.9111C5.31257 41.9111 5.78555 41.7153 6.14127 41.3602C6.49699 41.0039 6.6928 40.5309 6.6928 40.0276C6.6928 39.5249 6.49699 39.0514 6.14127 38.6956Z" fill="#1478C7"/>
<path d="M60.8674 19.6664H53.0859H52.4104V20.3419V43.8294C52.4104 47.3647 51.8662 50.2009 50.7934 52.2589C48.617 56.3951 45.0862 58.4071 39.999 58.4071C35.5587 58.4071 31.7199 56.2705 29.7303 52.6926C28.4101 50.3608 27.7419 47.3804 27.7419 43.8294V20.3419V19.6664H27.0669H19.2849H18.6094V20.3419V42.2983C18.6094 48.6198 19.4818 53.5696 21.2032 57.0095C24.5247 63.652 31.551 67.6182 39.999 67.6182C48.5177 67.6182 55.6018 63.6531 58.9485 57.0112C60.6699 53.5673 61.5429 48.6181 61.5429 42.2983V20.3419V19.6664H60.8674Z" fill="#1478C7"/>
<path d="M34.3906 32.9568C34.4013 32.9972 35.5341 36.992 39.994 37.0543C40.0215 37.056 44.1061 37.2277 45.5548 33.069L44.9174 32.8468C43.6387 36.5174 40.1635 36.3866 40.0159 36.3793C36.062 36.3238 35.0819 32.9243 35.0426 32.7801L34.3906 32.9568Z" fill="#1478C7"/>
<path d="M29.2537 42.7032C29.2537 39.8383 30.3691 37.1452 32.3951 35.1192C34.4205 33.0937 37.1142 31.9778 39.9785 31.9778C42.8439 31.9778 45.5364 33.0937 47.563 35.1192C49.5885 37.1452 50.7039 39.8383 50.7039 42.7032C50.7039 48.6168 45.8927 53.4285 39.9785 53.4285C37.1142 53.4285 34.4205 52.3126 32.3951 50.2871C30.3691 48.2611 29.2537 45.5674 29.2537 42.7032ZM39.9785 54.1035C43.024 54.1035 45.8871 52.918 48.0399 50.7646C50.1933 48.6112 51.3794 45.7481 51.3794 42.7032C51.3794 39.6577 50.1939 36.7951 48.0399 34.6417C45.8871 32.4883 43.024 31.3022 39.9785 31.3022C33.6923 31.3022 28.5781 36.4164 28.5781 42.7032C28.5781 45.7481 29.7642 48.6112 31.9176 50.7646C34.0704 52.918 36.9336 54.1035 39.9785 54.1035" fill="#1478C7"/>
<path d="M29.082 40.0059L50.6843 40.001Z" fill="#1478C7"/>
<path d="M29.082 40.4785L50.6849 40.4729L50.6843 39.5275L29.082 39.5326V40.4785Z" fill="#1478C7"/>
<path d="M35.2257 52.6342V52.6348C35.2549 52.4855 35.9938 48.9772 40.006 48.8807C40.1637 48.8728 43.6653 48.7477 44.7768 52.6191L45.4259 52.4322C44.1624 48.0351 40.0211 48.2034 39.9802 48.2057C35.4243 48.3157 34.5709 52.4642 34.5625 52.5057L35.2257 52.6342Z" fill="#1478C7"/>
<path d="M39.5312 53.7656H40.4766V31.6258H39.5312V53.7656Z" fill="#1478C7"/>
<path d="M31.7899 50.2568C31.8163 50.2164 34.4886 46.2031 39.9983 46.1896H40.009L40.0202 46.1891C40.0668 46.1863 44.7702 45.9338 48.0014 50.0156L48.5311 49.5965C45.0732 45.2285 40.1818 45.5018 39.9753 45.5158L39.9967 45.5147C34.1088 45.5287 31.3377 49.712 31.2227 49.8905L31.7899 50.2568Z" fill="#1478C7"/>
<path d="M29.7448 47.0107H29.7442C29.783 46.9715 33.6538 43.095 39.9332 43.0978H39.9428L39.9518 43.0973C40.0062 43.0945 45.4452 42.851 49.9595 46.8929L50.4106 46.3891C45.6803 42.1547 40.1481 42.41 39.9142 42.4229L39.9332 42.4223C33.3586 42.4195 29.4256 46.3706 29.2617 46.5389L29.7448 47.0107Z" fill="#1478C7"/>
<path d="M48.8348 16.3606L50.3328 17.8547V28.2384H41.418C41.0898 28.2384 40.8749 28.5779 40.7178 28.8253C40.6886 28.8713 40.6522 28.9286 40.6258 28.9645H39.998H39.865H39.2371C39.2108 28.9286 39.1743 28.8713 39.1451 28.8253C38.988 28.5779 38.7731 28.2384 38.4449 28.2384H29.5301V17.8547L31.0354 16.3606L30.9748 15.9493C30.9154 15.9443 30.857 15.9656 30.8149 16.0077L29.1845 17.6275C29.1463 17.6657 29.125 17.7167 29.125 17.7706V28.441C29.125 28.5532 29.2159 28.6441 29.3275 28.6441H38.4449C38.5504 28.6441 38.721 28.9134 38.8029 29.0425C38.9229 29.2321 39.0105 29.3701 39.1709 29.3701H39.865H39.998H40.692C40.8525 29.3701 40.9394 29.2321 41.0601 29.0425C41.142 28.9134 41.3125 28.6441 41.418 28.6441H50.5354C50.647 28.6441 50.7379 28.5532 50.7379 28.441V17.7706C50.7379 17.7167 50.7166 17.6657 50.6785 17.6275L49.0553 16.0077C49.0126 15.9656 48.9549 15.9443 48.8948 15.9493L48.8348 16.3606Z" fill="#1478C7"/>
<path d="M39.9263 27.2252C39.4062 26.5845 38.6202 26.6131 38.5848 26.6153C38.5938 26.6148 32.353 26.6148 31.1434 26.6148V16.3607H38.5046C39.1167 16.3607 39.6312 16.8931 39.7743 17.0564C39.8124 17.1002 39.868 17.1254 39.9263 17.1254C39.9847 17.1254 40.0402 17.1002 40.079 17.0564C40.222 16.8931 40.7365 16.3607 41.3481 16.3607H48.7099V26.6148H41.2583C41.232 26.6131 40.4465 26.5845 39.9263 27.2252ZM48.9124 15.9556H41.3481C40.7231 15.9556 40.2108 16.3489 39.9263 16.6283C39.6419 16.3489 39.1302 15.9556 38.5046 15.9556H30.9408C30.8286 15.9556 30.7383 16.0459 30.7383 16.1581V26.8173C30.7383 26.9295 30.8286 27.0198 30.9408 27.0198H38.5944C38.632 27.0187 39.3097 26.9991 39.6924 27.591C39.7294 27.6488 39.7939 27.6836 39.8624 27.6836H39.9903C40.0593 27.6836 40.1233 27.6488 40.1603 27.591C40.543 26.9991 41.2207 27.0187 41.2493 27.0198C41.2583 27.0198 48.9124 27.0198 48.9124 27.0198C49.0241 27.0198 49.115 26.9295 49.115 26.8173V16.1581C49.115 16.0459 49.0241 15.9556 48.9124 15.9556" fill="#1478C7"/>
<path d="M8.71578 22.9164L7.80067 20.377L7.23736 21.4211L8.2024 23.8685L6.43279 22.9147L6.00413 23.7097L6.0075 23.7114L5.85938 23.9886L6.02826 24.0795C6.07426 24.0312 6.12981 23.997 6.19321 23.9785C6.36714 23.9274 6.56015 24.0116 6.62075 24.0419L10.3014 26.0264L10.73 25.2313L9.29256 24.4565L9.06027 23.8337L11.5817 23.6525L12.1422 22.6128L8.71578 22.9164Z" fill="#1478C7"/>
<path d="M27.5751 7.8133L27.4466 5.81421L28.622 7.43009L27.5751 7.8133ZM27.5588 4.58491L26.5848 4.94119V4.94512L26.0781 5.13139L26.1443 5.31205C26.21 5.30644 26.2751 5.3171 26.3351 5.34572C26.4956 5.42146 26.5898 5.61054 26.6156 5.70649L26.7896 10.0654L27.6912 9.73552L27.6317 8.68857L29.1522 8.13199L29.7627 8.97752L30.698 8.63527L27.5588 4.58491Z" fill="#1478C7"/>
<path d="M11.7263 20.1265L10.5049 18.5392L12.3816 19.2248L11.7263 20.1265ZM9.91236 17.4564L9.30248 18.2952L9.30472 18.2985L8.98828 18.7356L9.1437 18.8489C9.19532 18.8074 9.25479 18.7805 9.32043 18.7704C9.49605 18.744 9.68008 18.8484 9.7547 18.9134L12.3306 22.4336L12.895 21.6571L12.2616 20.8211L13.2131 19.5115L14.1916 19.8723L14.7768 19.0672L9.91236 17.4564Z" fill="#1478C7"/>
<path d="M46.8986 3.09681L46.3723 6.46435L45.1699 2.82694L44.9814 2.7972V2.79664L43.9081 2.62944L43.8789 2.81964C43.9395 2.84658 43.99 2.88753 44.0293 2.9414C44.1325 3.08503 44.1202 3.28758 44.1118 3.35939L43.9053 4.68071C43.8654 4.93656 43.8351 5.129 43.8351 5.129L43.8357 5.12844L43.4648 7.50233L44.3104 7.63418L44.8456 4.20773L46.0834 7.91135L46.9906 8.05273L47.7441 3.22866L46.8986 3.09681Z" fill="#1478C7"/>
<path d="M22.9976 6.54054L24.6275 9.53384L21.4609 7.37709L21.2931 7.46854V7.46798L20.3398 7.98809L20.4313 8.15641C20.4958 8.14127 20.5615 8.14239 20.6249 8.16146C20.7949 8.21308 20.9076 8.3814 20.9447 8.44368L21.5843 9.618C21.7083 9.84579 21.8009 10.0164 21.8009 10.0164V10.0158L22.9499 12.126L23.7006 11.717L22.0427 8.67091L25.2772 10.8585L26.0835 10.4198L23.7489 6.13152L22.9976 6.54054Z" fill="#1478C7"/>
<path d="M13.6765 13.1209L16.1452 15.4712L12.4696 14.3883L12.3383 14.5263V14.5258L11.5898 15.313L11.729 15.4459C11.7851 15.4112 11.8479 15.3921 11.9147 15.391C12.092 15.3882 12.2508 15.5133 12.3052 15.5615L13.2742 16.4834C13.4616 16.6623 13.6024 16.7959 13.6024 16.7964L13.6018 16.7959L15.3423 18.4521L15.932 17.8327L13.4201 15.4415L17.1697 16.5333L17.8026 15.8679L14.2661 12.5015L13.6765 13.1209Z" fill="#1478C7"/>
<path d="M68.9443 16.1239L68.942 16.1251L68.7524 15.8675L68.5975 15.9814C68.6216 16.0431 68.6289 16.1082 68.6188 16.1739C68.5857 16.3792 68.3815 16.5307 68.3624 16.5447L65.0117 19.0185L65.5526 19.7529L69.4851 16.8589L68.9443 16.1239Z" fill="#1478C7"/>
<path d="M49.7528 3.68541L49.7522 3.68765L49.4425 3.6063L49.3937 3.79257C49.4515 3.82568 49.4981 3.87112 49.5312 3.92891C49.635 4.10902 49.5716 4.35477 49.5648 4.37833L48.5156 8.40849L49.3982 8.63965L50.6353 3.91657L49.7528 3.68541Z" fill="#1478C7"/>
<path d="M54.4083 5.23906L52.2689 8.41527L52.5999 4.60224L52.5848 4.59663H52.5854L51.7567 4.30488L51.6753 4.27626V4.27682L51.5491 4.2325L51.4857 4.41373C51.5401 4.45132 51.5827 4.50069 51.6119 4.56073C51.6501 4.64264 51.6562 4.73466 51.6495 4.81377C51.6484 4.82836 51.6489 4.84182 51.6501 4.85529L51.4531 9.3747L52.2712 9.66309L55.3082 5.55606L54.4083 5.23906Z" fill="#1478C7"/>
<path d="M55.4016 10.1657L56.0115 9.06821L57.8776 10.1051L58.2889 9.36334L56.4233 8.32704L56.9266 7.42036L58.9599 8.54979L59.379 7.79403L56.5619 6.22921L56.5597 6.23313L56.2887 6.08277L56.195 6.25053C56.2432 6.29653 56.2775 6.3532 56.2949 6.4166C56.3341 6.55911 56.2842 6.7106 56.2477 6.79532L54.1914 10.4973L57.1017 12.1143L57.5286 11.3467L55.4016 10.1657Z" fill="#1478C7"/>
<path d="M61.7355 11.9924C61.621 11.9722 61.4819 11.8999 61.3163 11.7753L60.486 11.1486L61.2771 10.1016L62.1288 10.7446C62.287 10.8647 62.3885 10.9775 62.4334 11.083C62.5131 11.2709 62.4643 11.483 62.2853 11.7192C62.1209 11.9375 61.9374 12.0284 61.7355 11.9924ZM61.1632 14.57C61.1985 14.4965 61.2832 14.3714 61.4185 14.1935L61.6154 13.9321C61.8213 13.6588 61.9414 13.4299 61.975 13.2459C62.0076 13.0624 61.9705 12.8728 61.8639 12.6786C62.1131 12.7504 62.347 12.7291 62.5658 12.6135C62.7858 12.4985 62.9648 12.3482 63.1045 12.163C63.2206 12.0098 63.3014 11.8567 63.3474 11.7029C63.3934 11.5498 63.4159 11.3949 63.4142 11.2389C63.4125 11.0493 63.3693 10.8742 63.2834 10.7121C63.197 10.5505 63.0338 10.3743 62.7919 10.183L61.6889 9.34981H61.6894L60.822 8.6956L60.7059 8.84877C60.7469 8.90095 60.7727 8.96155 60.7816 9.02719C60.8041 9.19776 60.7048 9.36496 60.661 9.42892L58.1289 12.7802L58.8454 13.3211L59.9989 11.7933L60.7558 12.365C60.9718 12.5277 61.0874 12.6803 61.1031 12.8223C61.1188 12.9642 61.0347 13.1606 60.8507 13.4114L60.5813 13.7772C60.4966 13.8933 60.4226 14.0129 60.3586 14.1363C60.3283 14.1963 60.2918 14.2782 60.2492 14.3809L61.0549 14.9902L61.1289 14.8926C61.0947 14.7922 61.1065 14.6845 61.1632 14.57" fill="#1478C7"/>
<path d="M73.8396 23.946L71.5874 24.0352L73.1107 22.3542L73.0945 22.3172L73.095 22.3177L72.6518 21.3499L72.4795 21.4279C72.4907 21.4918 72.4851 21.5564 72.4621 21.617C72.4475 21.6551 72.4257 21.6899 72.4015 21.7208L70.5736 23.9886L68.9375 24.7376L69.3129 25.5557L70.9484 24.8072L74.2648 24.8734L73.8396 23.946Z" fill="#1478C7"/>
<path d="M41.7175 2.54934L41.529 5.48542C41.5076 5.81421 41.4571 6.05154 41.3775 6.19798C41.2512 6.45943 41.0066 6.57782 40.643 6.55482C40.2778 6.53125 40.0489 6.38201 39.9574 6.10708C39.8968 5.95111 39.8772 5.70929 39.8985 5.3805L40.087 2.44443L39.9299 2.43433H39.9305L38.8678 2.36644L38.8555 2.55439C38.9172 2.57515 38.9705 2.61106 39.0137 2.65988C39.1225 2.78556 39.1326 2.97183 39.1315 3.04982L38.9856 5.32215C38.9531 5.82992 38.9985 6.22996 39.1225 6.52227C39.3554 7.05753 39.8441 7.34929 40.5892 7.39698C41.3337 7.44523 41.8549 7.218 42.1529 6.7164C42.3128 6.4426 42.4093 6.0521 42.4418 5.54377L42.6303 2.6077L41.7175 2.54934Z" fill="#1478C7"/>
<path d="M33.3196 2.98907L33.3247 6.90926L31.761 3.31337L30.4531 3.58493L30.4543 3.58942L30.1406 3.65506L30.1799 3.84302C30.2461 3.84695 30.3084 3.86715 30.3634 3.90362C30.5367 4.0192 30.5895 4.26775 30.594 4.29131C30.594 4.29131 30.9368 5.94422 30.9368 5.94534L30.9396 5.92346L31.4474 8.36523L32.2845 8.1913L31.6129 4.95786C31.5932 4.86473 31.5652 4.73512 31.5287 4.56736C31.4917 4.40072 31.4636 4.27168 31.4451 4.18078L33.0874 8.02467L33.9604 7.84288L33.9402 3.66179C33.9593 3.75269 33.9856 3.88229 34.0182 4.05005C34.0507 4.21837 34.0771 4.34854 34.0967 4.44168L34.7689 7.67512L35.6066 7.50119L34.6123 2.72032L33.3196 2.98907Z" fill="#1478C7"/>
<path d="M19.6685 9.96382L18.9772 10.5457C18.7096 10.3353 18.4296 10.2662 18.1373 10.3386C17.9746 10.3807 17.8226 10.4604 17.6812 10.5799C17.4107 10.8071 17.2839 11.1084 17.3008 11.4821C17.3182 11.8557 17.5185 12.2709 17.9028 12.7271C18.2894 13.1866 18.6569 13.4324 19.0064 13.4649C19.3554 13.4969 19.65 13.4122 19.8907 13.2096C20.1263 13.0116 20.2559 12.7737 20.2789 12.4959C20.3025 12.2176 20.2284 11.9416 20.0573 11.6672L19.2797 12.3214L18.7551 11.6981L20.1555 10.5193L21.8426 12.524L21.3769 12.9162L20.9141 12.5094C20.9281 12.8006 20.9113 13.0278 20.8641 13.1911C20.7856 13.4739 20.6105 13.7292 20.3401 13.957C19.8946 14.3317 19.3851 14.4675 18.8123 14.3637C18.2254 14.2689 17.6806 13.9222 17.1773 13.3241C16.6685 12.7192 16.4104 12.1082 16.4025 11.4911C16.3952 10.8739 16.6376 10.3583 17.1308 9.94363C17.5577 9.58398 18.0027 9.41566 18.4644 9.4381C18.9262 9.46111 19.3274 9.63616 19.6685 9.96382Z" fill="#1478C7"/>
<path d="M62.4506 15.7795C62.4685 16.2171 62.6767 16.6419 63.0739 17.0537C63.4633 17.4577 63.8701 17.6675 64.2954 17.6843C64.7212 17.7006 65.0943 17.5542 65.4152 17.2444C65.7283 16.9426 65.8764 16.6172 65.8596 16.2693C65.8495 16.0449 65.7603 15.7823 65.5937 15.4821L65.2138 14.7971C65.0668 14.5328 64.9827 14.3488 64.9619 14.2444C64.9271 14.0845 64.9731 13.9442 65.0988 13.8231C65.2351 13.6912 65.3906 13.6396 65.5651 13.6671C65.739 13.6957 65.9084 13.7944 66.0723 13.965C66.2204 14.1182 66.3141 14.2741 66.355 14.4341C66.4145 14.6742 66.3444 14.9025 66.1441 15.1174L66.7568 15.7526C67.1187 15.3811 67.2847 14.9833 67.255 14.5586C67.2241 14.1339 67.0474 13.7546 66.7265 13.4213C66.3416 13.0218 65.9455 12.8199 65.5392 12.8148C65.1319 12.8098 64.7711 12.9584 64.4564 13.262C64.1113 13.5941 63.9604 13.9454 64.0042 14.3151C64.0288 14.5345 64.1579 14.8487 64.3924 15.2571L64.632 15.6729C64.7728 15.9147 64.8564 16.1111 64.8828 16.2626C64.908 16.4157 64.862 16.5482 64.7465 16.6598C64.5473 16.8517 64.3223 16.8899 64.0715 16.776C63.9391 16.7154 63.7977 16.6071 63.6479 16.4511C63.3971 16.1908 63.2922 15.9372 63.3331 15.6903C63.3556 15.5556 63.438 15.4002 63.58 15.2252L62.9712 14.5945C62.6054 14.9469 62.432 15.3419 62.4506 15.7795Z" fill="#1478C7"/>
<path d="M70.1279 17.5484L72.114 20.5025L71.3964 20.985L70.6626 19.8937L67.3287 22.1357L66.8125 21.3688L70.1469 19.1267L69.4102 18.031L70.1279 17.5484Z" fill="#1478C7"/>
<path d="M76.5795 55.5191L68.1932 51.9989L67.9648 52.5286L76.217 56.2227L76.5795 55.5191Z" fill="#1478C7"/>
<path d="M73.8301 60.8484L66.1278 56.0355L65.5156 57L73.0844 61.957L73.8301 60.8484Z" fill="#1478C7"/>
<path d="M70.5915 65.24L63.6853 59.4509L62.5352 60.7756L69.2265 66.8604C69.2265 66.8604 70.0355 65.9879 70.5915 65.24" fill="#1478C7"/>
<path d="M67.1602 69.034L60.9329 62.4269C60.5065 62.7876 59.2031 63.9098 59.2031 63.9098L64.8363 70.8457C65.6543 70.1977 67.1602 69.034 67.1602 69.034Z" fill="#1478C7"/>
<path d="M58.3148 75.173L54.1775 67.2277C54.1775 67.2277 51.7907 68.4262 50.5625 68.8638L53.5816 77.1553C53.5816 77.1553 56.0621 76.3675 58.3148 75.173" fill="#1478C7"/>
<path d="M63.0667 72.2954L57.8219 64.969C57.8219 64.969 56.1448 66.1562 55.1602 66.692L59.6352 74.5762C59.6352 74.5762 61.1569 73.6656 63.0667 72.2954" fill="#1478C7"/>
<path d="M3.63672 55.4768L11.7245 51.9993L11.9534 52.5289L3.67936 56.1377L3.63672 55.4768Z" fill="#1478C7"/>
<path d="M6.19141 60.6777L13.7866 56.0354L14.3993 56.9993L7.06555 61.7432L6.19141 60.6777Z" fill="#1478C7"/>
<path d="M9.42578 65.0898L16.2248 59.45L17.3756 60.7746L10.875 66.667C10.875 66.667 9.9818 65.8377 9.42578 65.0898Z" fill="#1478C7"/>
<path d="M13.0156 68.757L18.9871 62.427C19.4135 62.7878 20.7169 63.9099 20.7169 63.9099L15.1898 70.7393C14.3723 70.0912 13.0156 68.757 13.0156 68.757Z" fill="#1478C7"/>
<path d="M21.6719 75.0669L25.7452 67.2277C25.7452 67.2277 28.132 68.4261 29.3602 68.8637L26.2979 77.2197C26.2979 77.2197 23.924 76.2609 21.6719 75.0669Z" fill="#1478C7"/>
<path d="M16.8711 72.146L22.0946 64.9688C22.0946 64.9688 23.7722 66.1555 24.7564 66.6913L20.3884 74.2988C20.3884 74.2988 18.7815 73.5156 16.8711 72.146Z" fill="#1478C7"/>
<path d="M33.0701 73.622L31.9727 73.4206L32.0877 72.7961C32.3794 72.8365 32.5859 72.8545 32.7065 72.85C32.8984 72.8427 33.0634 72.7894 33.202 72.6884C33.2968 72.6194 33.377 72.5184 33.4438 72.3871C33.4825 72.3069 33.5061 72.2474 33.5134 72.2064L34.2758 72.3467L33.4185 77.0137L32.4782 76.8403L33.0701 73.622Z" fill="white"/>
<path d="M36.2963 75.4582C36.5684 75.7399 36.8927 75.8942 37.2692 75.9222C37.5239 75.9408 37.7422 75.9048 37.9239 75.8134C38.0238 75.764 38.1198 75.6888 38.2129 75.5884C38.1686 75.9458 38.1063 76.2162 38.0249 76.3986C37.8757 76.7285 37.6479 76.8817 37.341 76.8592C37.1822 76.848 37.0582 76.7953 36.969 76.701C36.8798 76.6067 36.8293 76.4895 36.8175 76.3481L35.8906 76.2796C35.9024 76.6853 36.0416 77.0034 36.3092 77.2346C36.5768 77.4646 36.8871 77.5942 37.2422 77.62C37.9862 77.675 38.5243 77.3485 38.8564 76.6398C39.0309 76.2679 39.1392 75.796 39.1819 75.2237C39.2251 74.634 39.1841 74.1532 39.0584 73.7806C38.8379 73.1236 38.3677 72.7679 37.6479 72.7146C37.18 72.6804 36.7878 72.8094 36.4725 73.1023C36.156 73.3946 35.9798 73.7947 35.9422 74.3007C35.9058 74.7911 36.0242 75.1766 36.2963 75.4582ZM37.0161 74.9308C36.9123 74.7821 36.8708 74.5673 36.8916 74.2862C36.9163 73.9534 37.0229 73.724 37.2114 73.5983C37.3314 73.5175 37.4706 73.4827 37.6294 73.4945C37.8471 73.5102 38.0126 73.6017 38.1259 73.7672C38.2393 73.9332 38.2864 74.1498 38.2668 74.418C38.2421 74.7502 38.1192 74.9768 37.8981 75.0958C37.7797 75.1614 37.6557 75.1895 37.5278 75.1799C37.2905 75.1626 37.1199 75.079 37.0161 74.9308Z" fill="white"/>
<path d="M43.5435 75.6535L43.3129 72.6973L42.2688 72.7792L40.7539 75.786L40.8173 76.5989L42.6902 76.4519L42.7698 77.4697L43.6799 77.3985L43.6008 76.3807L44.1355 76.3392L44.0782 75.6115L43.5435 75.6535ZM42.4736 73.682L42.6329 75.7242L41.4491 75.8174L42.4736 73.682Z" fill="white"/>
<path d="M47.7997 72.1974C47.4984 72.0274 47.1321 71.9864 46.7 72.0734C46.401 72.134 46.1569 72.2546 45.9695 72.4342C45.7821 72.6143 45.6447 72.8297 45.5577 73.0816C45.4562 73.3756 45.4197 73.7258 45.4455 74.132C45.4601 74.3603 45.5038 74.6521 45.5751 75.0072C45.6974 75.6126 45.9045 76.085 46.1979 76.4239C46.5744 76.8582 47.0552 77.0159 47.6415 76.8975C48.1869 76.7881 48.5555 76.5412 48.7474 76.158C48.9398 75.7742 48.992 75.3652 48.9045 74.9309C48.817 74.4944 48.6122 74.1634 48.2918 73.9362C47.9714 73.7089 47.6045 73.6371 47.1921 73.7207C46.9991 73.7589 46.8341 73.8245 46.6972 73.9165C46.5603 74.0091 46.4487 74.1336 46.3617 74.2913C46.3152 73.9266 46.3079 73.6461 46.3387 73.448C46.3982 73.0889 46.5761 72.8797 46.874 72.8196C47.0726 72.7792 47.2359 72.8219 47.3632 72.9481C47.439 73.0261 47.4844 73.1024 47.5001 73.1776L48.4107 72.9941C48.3047 72.6322 48.101 72.3674 47.7997 72.1974ZM46.7517 74.7166C46.8527 74.5982 46.9811 74.5236 47.1371 74.4922C47.3296 74.4535 47.5069 74.4933 47.6685 74.6106C47.83 74.7284 47.9378 74.9225 47.9933 75.1946C48.0421 75.4381 48.0236 75.648 47.9378 75.8247C47.8519 76.0009 47.7077 76.1103 47.5046 76.1513C47.297 76.1928 47.1102 76.1479 46.9436 76.0172C46.7769 75.8859 46.6681 75.6951 46.6181 75.4449C46.5553 75.1346 46.6002 74.8922 46.7517 74.7166" fill="white"/>
</svg>
