<svg width="34" height="34" viewBox="0 0 34 34" fill="none" xmlns="http://www.w3.org/2000/svg">
<path d="M33.5852 0.414788C33.3195 0.1492 32.9593 0 32.5836 0C32.208 0 31.8477 0.1492 31.582 0.414788L17 14.9968L2.41799 0.414788C2.15232 0.1492 1.79205 0 1.41639 0C1.04073 0 0.680457 0.1492 0.414788 0.414788C0.1492 0.680457 0 1.04073 0 1.41639C0 1.79205 0.1492 2.15232 0.414788 2.41799L14.9968 17L0.414788 31.582C0.1492 31.8477 0 32.208 0 32.5836C0 32.9593 0.1492 33.3195 0.414788 33.5852C0.680457 33.8508 1.04073 34 1.41639 34C1.79205 34 2.15232 33.8508 2.41799 33.5852L17 19.0032L31.582 33.5852C31.8477 33.8508 32.208 34 32.5836 34C32.9593 34 33.3195 33.8508 33.5852 33.5852C33.8508 33.3195 34 32.9593 34 32.5836C34 32.208 33.8508 31.8477 33.5852 31.582L19.0032 17L33.5852 2.41799C33.8508 2.15232 34 1.79205 34 1.41639C34 1.04073 33.8508 0.680457 33.5852 0.414788Z" fill="white"/>
</svg>
