<svg width="70" height="70" viewBox="0 0 70 70" fill="none" xmlns="http://www.w3.org/2000/svg">
<path d="M8.3528 35.0004C8.3528 27.8824 11.1246 21.191 16.1576 16.1575C21.1907 11.1244 27.8826 8.35263 35.0001 8.35263C42.1176 8.35263 48.8095 11.1244 53.8425 16.1575C58.8756 21.1905 61.6479 27.8824 61.6479 35.0004C61.6479 49.694 49.6937 61.6477 35.0001 61.6477C27.8826 61.6477 21.1907 58.8759 16.1576 53.8424C11.1246 48.8098 8.3528 42.1174 8.3528 35.0004ZM35.0001 62.2383C42.2757 62.2383 49.1159 59.4051 54.2608 54.2601C59.4053 49.1157 62.239 42.2755 62.239 35.0004C62.239 27.7248 59.4053 20.8842 54.2608 15.7397C49.1159 10.5952 42.2757 7.76203 35.0001 7.76203C19.981 7.76203 7.76172 19.9803 7.76172 35.0004C7.76172 42.2755 10.5949 49.1157 15.7399 54.2601C20.8843 59.4051 27.7245 62.2383 35.0001 62.2383" fill="white"/>
<path d="M28.4971 16.8125V17.2205H30.2468C30.2468 17.2205 30.3509 18.5003 28.4902 18.5072V18.922C28.4902 18.922 30.7588 19.0737 30.8212 17.2205V16.8125H28.4971Z" fill="white"/>
<path d="M40.6774 16.5915L40.6779 16.755C40.9022 16.781 40.9145 17.0766 40.9145 17.0766V18.08H40.3843L40.3848 16.5915H39.5802L39.5812 16.7589C39.6288 16.7722 39.672 16.7963 39.7068 16.8321C39.8173 16.944 39.8178 17.1227 39.8178 17.1414V19.1778L39.7638 19.1974C39.1295 19.4306 38.5801 19.411 38.5374 19.409H38.3239L38.2232 19.408L38.2252 17.1983H39.2184L39.2164 16.7904L37.3926 16.7899V16.9318C37.5786 16.9701 37.6474 17.1335 37.6567 17.2253V17.2293V17.2337C37.6567 17.2337 37.6547 19.5921 37.6547 19.5897C37.6562 19.6132 37.6724 19.8194 37.9184 19.8332C38.1614 19.8469 38.5158 19.8341 38.5193 19.8337H38.5227L38.5261 19.8341C38.5315 19.8341 39.0279 19.8553 39.7112 19.652L39.8178 19.6201L39.8193 21.0644L40.3848 21.0625L40.3843 18.4914L40.9126 18.491L40.9111 21.0703L41.4796 21.0664V16.5915H40.6774Z" fill="white"/>
<path d="M30.6505 20.8286C30.1001 20.8286 29.6642 20.5262 29.6642 20.1619C29.6642 19.7971 30.1001 19.4947 30.6505 19.4947C31.2003 19.4947 31.6367 19.7971 31.6367 20.1619C31.6367 20.5262 31.2003 20.8286 30.6505 20.8286ZM32.2043 17.6424L32.2018 16.5913H31.3864V16.7548C31.6215 16.7966 31.6372 17.0317 31.6372 17.0317V19.0534C31.6387 19.1476 31.6456 19.2434 31.6549 19.3366C31.3824 19.1805 31.0309 19.0867 30.6519 19.0867C29.7948 19.0867 29.0996 19.5693 29.0996 20.1643C29.0996 20.7594 29.7948 21.2424 30.6519 21.2424C31.135 21.2424 31.5587 21.0971 31.841 20.8595C32.0324 20.6828 32.1287 20.4702 32.1738 20.3057C32.2018 20.2149 32.1979 20.0637 32.1979 20.0637L32.2018 18.0509H32.7571L32.7575 17.6424H32.2043Z" fill="white"/>
<path d="M36.0709 20.6597H34.2707V19.6842H36.0709V20.6597ZM36.6404 17.6414L36.6414 16.5918H35.8378V16.7553C35.8378 16.7553 35.9276 16.7916 35.9639 16.828C36.0749 16.9389 36.0749 17.1186 36.0744 17.1377L36.0754 18.1427L36.0744 18.1928L36.0228 18.2197C35.4681 18.4245 34.0331 18.4043 33.9737 18.4034H33.8348H33.7513L33.7523 18.3194L33.7773 16.7828L32.9688 16.7838V16.9198C33.0934 16.9541 33.1779 17.0656 33.2005 17.2349L33.2015 17.2408V17.2467C33.2015 17.2467 33.1813 18.4868 33.1813 18.4853V18.6199C33.1823 18.6547 33.1956 18.827 33.3964 18.827H33.5245C33.5274 18.827 33.5309 18.827 33.5343 18.8275H33.5549H33.9457C33.9609 18.8275 35.4745 18.7971 35.9728 18.666L36.0773 18.6385L36.0759 19.2738L33.4852 19.2723V19.4171C33.5333 19.4304 33.576 19.4549 33.6114 19.4903C33.7214 19.6017 33.7218 19.7814 33.7218 19.7996C33.7218 19.7996 33.7214 20.8624 33.7209 20.8634C33.7209 20.8634 33.7174 20.9537 33.7719 21.0102C33.8068 21.047 33.8613 21.0652 33.9339 21.0652L36.6355 21.0647L36.6385 18.0553H37.1927V17.6414H36.6404Z" fill="white"/>
<path d="M0.614647 35.0005C0.614647 25.8156 4.19108 17.1806 10.6861 10.6866C17.1802 4.19158 25.8152 0.615135 35 0.615135C44.1844 0.615135 52.8189 4.19158 59.3139 10.6866C65.8079 17.1806 69.3849 25.8156 69.3849 35.0005C69.3849 44.1848 65.8079 52.8194 59.3139 59.3139C52.8189 65.8084 44.1844 69.3854 35 69.3854C25.8152 69.3854 17.1802 65.8084 10.6861 59.3139C4.19108 52.8194 0.614647 44.1848 0.614647 35.0005ZM35 70C44.3483 70 53.138 66.3597 59.7484 59.7489C66.3592 53.138 69.9995 44.3488 69.9995 35.0005C69.9995 25.6517 66.3592 16.8625 59.7484 10.2516C53.138 3.64075 44.3483 2.0578e-06 35 2.0578e-06C25.6512 2.0578e-06 16.8615 3.64075 10.2511 10.2516C3.64026 16.8625 0 25.6517 0 35.0005C0 44.3488 3.64026 53.138 10.2511 59.7489C16.8615 66.3597 25.6512 70 35 70Z" fill="white"/>
<path d="M67.0103 33.8347C66.6986 33.5234 66.2852 33.3521 65.8453 33.3521C64.9356 33.3521 64.1973 34.0914 64.1973 35.0006C64.1973 35.4405 64.3681 35.8544 64.6799 36.1661C64.9911 36.4773 65.4045 36.6482 65.8453 36.6482C66.2852 36.6482 66.6986 36.4773 67.0103 36.1661C67.322 35.8544 67.4929 35.4405 67.4929 35.0006C67.4929 34.5603 67.322 34.1464 67.0103 33.8347Z" fill="white"/>
<path d="M5.37408 33.8591C5.06283 33.5478 4.64897 33.3765 4.2086 33.3765C3.29989 33.3765 2.56055 34.1158 2.56055 35.0245C2.56055 35.4649 2.73188 35.8788 3.04313 36.1905C3.35487 36.5013 3.76824 36.6726 4.2086 36.6726C4.64897 36.6726 5.06283 36.5013 5.37408 36.1905C5.68533 35.8788 5.85666 35.4649 5.85666 35.0245C5.85666 34.5847 5.68533 34.1703 5.37408 33.8591Z" fill="white"/>
<path d="M53.2587 17.208H46.45H45.8589V17.7991V38.3505C45.8589 41.4439 45.3827 43.9255 44.444 45.7268C42.5397 49.3459 39.4503 51.1059 34.999 51.1059C31.1138 51.1059 27.7548 49.2364 26.014 46.1058C24.8588 44.065 24.2741 41.4576 24.2741 38.3505V17.7991V17.208H23.6835H16.8743H16.2832V17.7991V37.0113C16.2832 42.5421 17.0466 46.8731 18.5528 49.883C21.4591 55.6951 27.607 59.1655 34.999 59.1655C42.4528 59.1655 48.6513 55.6956 51.5797 49.8845C53.0859 46.8711 53.8498 42.5406 53.8498 37.0113V17.7991V17.208H53.2587Z" fill="white"/>
<path d="M30.0938 28.8371C30.1031 28.872 31.0943 32.3679 34.9967 32.4224C35.0207 32.4239 38.5947 32.5741 39.8623 28.9353L39.3046 28.7409C38.1853 31.9526 35.1449 31.8382 35.0158 31.8323C31.5562 31.7832 30.6986 28.8086 30.6642 28.6825L30.0938 28.8371Z" fill="white"/>
<path d="M25.6008 37.3651C25.6008 34.8579 26.5768 32.5014 28.3496 30.7287C30.1218 28.9564 32.4788 27.9804 34.985 27.9804C37.4922 27.9804 39.8482 28.9564 41.6214 30.7287C43.3937 32.5014 44.3697 34.8579 44.3697 37.3651C44.3697 42.5395 40.1599 46.7492 34.985 46.7492C32.4788 46.7492 30.1218 45.7733 28.3496 44.001C26.5768 42.2278 25.6008 39.8708 25.6008 37.3651ZM34.985 47.3403C37.6498 47.3403 40.155 46.3025 42.0387 44.4183C43.9229 42.5341 44.9612 40.0294 44.9612 37.3651C44.9612 34.6998 43.9234 32.1956 42.0392 30.3114C40.155 28.4267 37.6498 27.3894 34.985 27.3894C29.4846 27.3894 25.0098 31.8642 25.0098 37.3651C25.0098 40.0294 26.0476 42.5341 27.9318 44.4183C29.8155 46.3025 32.3207 47.3403 34.985 47.3403" fill="white"/>
<path d="M25.4492 35.0049L44.3511 35.0005Z" fill="white"/>
<path d="M25.4492 35.4189L44.3516 35.4135L44.3511 34.5868L25.4492 34.5912V35.4189Z" fill="white"/>
<path d="M30.8244 46.0547V46.0552C30.85 45.9246 31.4965 42.8548 35.0072 42.7704C35.1451 42.7635 38.209 42.6535 39.1816 46.0414L39.7496 45.8784C38.644 42.031 35.0204 42.1783 34.9846 42.1798C30.9982 42.276 30.2515 45.9059 30.2441 45.9423L30.8244 46.0547Z" fill="white"/>
<path d="M34.5918 47.0447H35.419V27.673H34.5918V47.0447Z" fill="white"/>
<path d="M27.8186 43.9749V43.9753C27.8417 43.94 30.18 40.4279 35.0009 40.4166H35.0103L35.0201 40.4161C35.0608 40.4131 39.1763 40.1927 42.0036 43.7638L42.4665 43.397C39.4414 39.5751 35.1615 39.8142 34.9808 39.8265L34.9995 39.826C29.8476 39.8378 27.4229 43.4982 27.3223 43.6548L27.8186 43.9749Z" fill="white"/>
<path d="M26.0262 41.1353H26.0257C26.0596 41.1009 29.4465 37.709 34.941 37.711H34.9494L34.9572 37.7105C35.0049 37.7085 39.7644 37.4955 43.714 41.0317L44.1082 40.5913C39.9697 36.8862 35.1291 37.1096 34.9243 37.1209L34.941 37.1199C29.1883 37.1175 25.7469 40.5746 25.6035 40.7219L26.0262 41.1353Z" fill="white"/>
<path d="M42.7303 14.3157L44.0411 15.6226V24.7088H36.2407C35.9535 24.7088 35.7655 25.0053 35.628 25.2223C35.6025 25.262 35.5706 25.3126 35.5475 25.344H34.9981H34.8818H34.3324C34.3094 25.3126 34.2775 25.262 34.2519 25.2223C34.1145 25.0053 33.9264 24.7088 33.6392 24.7088H25.8388V15.6226L27.156 14.3157L27.103 13.9559C27.0509 13.9515 26.9999 13.9701 26.9631 14.0069L25.5364 15.4243C25.503 15.4572 25.4844 15.5023 25.4844 15.549V24.8855C25.4844 24.9837 25.5639 25.0637 25.6616 25.0637H33.6392C33.7315 25.0637 33.8808 25.2989 33.9525 25.4123C34.0575 25.5782 34.1341 25.6985 34.2745 25.6985H34.8818H34.9981H35.6054C35.7458 25.6985 35.8219 25.5782 35.9275 25.4123C35.9992 25.2989 36.1484 25.0637 36.2407 25.0637H44.2183C44.316 25.0637 44.3956 24.9837 44.3956 24.8855V15.549C44.3956 15.5023 44.3769 15.4572 44.3435 15.4243L42.9233 14.0069C42.8859 13.9701 42.8354 13.9515 42.7828 13.9559L42.7303 14.3157Z" fill="white"/>
<path d="M34.9399 23.8218C34.4848 23.2612 33.797 23.2862 33.7661 23.2882C33.7739 23.2877 28.3133 23.2877 27.2548 23.2877V14.3159H33.6959C34.2315 14.3159 34.6817 14.7818 34.8068 14.9247C34.8402 14.9625 34.8888 14.985 34.9399 14.985C34.9909 14.985 35.0395 14.9625 35.0734 14.9247C35.1986 14.7818 35.6488 14.3159 36.1839 14.3159H42.6254V23.2877H36.1054C36.0823 23.2862 35.395 23.2612 34.9399 23.8218ZM42.8027 13.961H36.1839C35.637 13.961 35.1888 14.3056 34.9399 14.5496C34.691 14.3056 34.2433 13.961 33.6959 13.961H27.0776C26.9794 13.961 26.9004 14.04 26.9004 14.1382V23.4654C26.9004 23.5636 26.9794 23.6426 27.0776 23.6426H33.7744C33.8073 23.6416 34.4004 23.6245 34.7352 24.1419C34.7676 24.1925 34.824 24.2229 34.8839 24.2229H34.9959C35.0562 24.2229 35.1122 24.1925 35.1446 24.1419C35.4794 23.6245 36.0725 23.6416 36.0975 23.6421C36.1054 23.6426 42.8027 23.6426 42.8027 23.6426C42.9003 23.6426 42.9799 23.5636 42.9799 23.4654V14.1382C42.9799 14.04 42.9003 13.961 42.8027 13.961Z" fill="white"/>
<path d="M7.62433 20.052L6.82362 17.8305L6.33073 18.7441L7.17513 20.8851L5.62673 20.05L5.25166 20.7456L5.25461 20.7476L5.125 20.9901L5.27277 21.0697C5.31303 21.0274 5.36163 20.9975 5.4171 20.9813C5.56929 20.9366 5.73817 21.0103 5.79119 21.0373L9.01171 22.7737L9.38678 22.0775L8.12901 21.3996L7.92577 20.8546L10.132 20.6961L10.6225 19.7869L7.62433 20.052Z" fill="white"/>
<path d="M24.1282 6.83702L24.0157 5.08783L25.0442 6.50122L24.1282 6.83702ZM24.1139 4.0117L23.2617 4.32345V4.32737L22.8184 4.49036L22.8763 4.64844C22.9337 4.64304 22.9907 4.65286 23.0432 4.6779C23.1836 4.74417 23.2661 4.90913 23.2887 4.99308L23.4409 8.80762L24.2298 8.51895L24.1777 7.60238L25.5082 7.11538L26.0423 7.85521L26.8607 7.55623L24.1139 4.0117Z" fill="white"/>
<path d="M10.261 17.6112L9.19222 16.2223L10.8344 16.8218L10.261 17.6112ZM8.6738 15.2743L8.14016 16.0088L8.14212 16.0117L7.86523 16.3942L8.00122 16.4933C8.04639 16.4565 8.09843 16.4334 8.15587 16.4246C8.30953 16.401 8.47055 16.4923 8.53585 16.5498L10.7897 19.6299L11.2836 18.9504L10.7293 18.2185L11.562 17.0731L12.4181 17.3888L12.9302 16.6838L8.6738 15.2743Z" fill="white"/>
<path d="M41.0338 2.71072L40.5733 5.65729L39.5207 2.47458L39.3563 2.44856V2.44807L38.4171 2.30177L38.3911 2.4682C38.4446 2.49177 38.4888 2.5276 38.5232 2.57473C38.6135 2.70041 38.6032 2.87764 38.5953 2.94048L38.4152 4.09613C38.3798 4.32049 38.3538 4.48839 38.3533 4.48888L38.3538 4.48789L38.0293 6.56552L38.7691 6.6804L39.2375 3.68228L40.3205 6.92292L41.1143 7.04663L41.7736 2.8256L41.0338 2.71072Z" fill="white"/>
<path d="M20.1205 5.72239L21.5466 8.34201L18.7758 6.45486L18.629 6.53439V6.5339L17.7949 6.989L17.8749 7.13677C17.9314 7.12351 17.9888 7.124 18.0443 7.14119C18.1931 7.18586 18.2917 7.33314 18.3241 7.38763L18.8838 8.41515C18.9923 8.61447 19.0733 8.76372 19.0733 8.76421V8.76322L20.0787 10.6096L20.7356 10.2517L19.2849 7.58646L22.1151 9.5006L22.8206 9.1167L20.7778 5.3645L20.1205 5.72239Z" fill="white"/>
<path d="M11.9664 11.4809L14.1265 13.5374L10.9104 12.5904L10.7955 12.7107L10.1406 13.3995L10.2624 13.5153C10.3115 13.4849 10.3665 13.4687 10.4249 13.4677C10.58 13.4648 10.7189 13.5747 10.7666 13.6165L11.6144 14.4231C11.7784 14.5802 11.9016 14.697 11.9016 14.6975L11.9011 14.6965L13.424 16.1462L13.9399 15.6038L11.742 13.5119L15.0229 14.4668L15.5767 13.8845L12.4824 10.9389L11.9664 11.4809Z" fill="white"/>
<path d="M60.3257 14.1091L60.3237 14.1105L60.1578 13.8847L60.0223 13.9844C60.0434 14.0379 60.0498 14.0953 60.041 14.1528C60.012 14.3325 59.8333 14.465 59.8166 14.4773L56.8848 16.6418L57.358 17.2844L60.799 14.7522L60.3257 14.1091Z" fill="white"/>
<path d="M43.5317 3.22513L43.5312 3.2271L43.2602 3.15542L43.2175 3.31841C43.2681 3.34737 43.3088 3.38763 43.3378 3.4382C43.4286 3.59579 43.3736 3.81032 43.3678 3.83143L42.4492 7.35731L43.221 7.55957L44.304 3.4274L43.5317 3.22513Z" fill="white"/>
<path d="M47.6053 4.5853L45.7333 7.36398L46.023 4.0281L46.0092 4.0227H46.0102L45.2851 3.7679L45.2134 3.74237V3.74287L45.104 3.70408L45.048 3.86265C45.0956 3.89604 45.1329 3.93924 45.158 3.99177C45.1918 4.06344 45.1972 4.14396 45.1914 4.21318C45.1904 4.22545 45.1909 4.23772 45.1918 4.24951L45.0195 8.20396L45.7358 8.45581L48.3927 4.86219L47.6053 4.5853Z" fill="white"/>
<path d="M48.4769 8.89534L49.0106 7.93458L50.6429 8.84231L51.0032 8.1933L49.3704 7.28655L49.8118 6.49321L51.5904 7.48145L51.9576 6.81968L49.4922 5.45047L49.4902 5.45439L49.2531 5.32282L49.1711 5.46912C49.2133 5.50987 49.2433 5.55896 49.2585 5.61493C49.2928 5.73913 49.2491 5.87218 49.2172 5.94582L47.418 9.18548L49.9649 10.6003L50.338 9.92826L48.4769 8.89534Z" fill="white"/>
<path d="M54.0185 10.4932C53.9184 10.4755 53.7966 10.4126 53.6518 10.3032L52.9257 9.75431L53.6174 8.83872L54.3622 9.40133C54.5011 9.50639 54.5899 9.60507 54.6292 9.69736C54.6989 9.86182 54.6562 10.0474 54.5001 10.2541C54.3558 10.4451 54.1952 10.5246 54.0185 10.4932ZM53.5177 12.7485C53.5487 12.6842 53.6228 12.5747 53.7411 12.4191L53.9134 12.1903C54.0936 11.9512 54.1987 11.7509 54.2281 11.5899C54.2566 11.4294 54.2242 11.2634 54.1309 11.0936C54.3489 11.1564 54.5541 11.1378 54.7456 11.0366C54.9375 10.936 55.0941 10.8044 55.2164 10.6424C55.318 10.5079 55.3887 10.3744 55.4294 10.2398C55.4692 10.1058 55.4888 9.97081 55.4874 9.83384C55.4859 9.66791 55.4481 9.51474 55.373 9.37286C55.2979 9.23196 55.154 9.07732 54.9429 8.90991L53.9778 8.18087L53.2193 7.60845L53.1176 7.74247C53.1535 7.78813 53.1761 7.84115 53.1839 7.89859C53.2036 8.04832 53.1167 8.19364 53.0784 8.25009L50.8633 11.1819L51.4897 11.6557L52.4991 10.3194L53.1613 10.8187C53.3499 10.961 53.4515 11.095 53.4652 11.2193C53.479 11.3435 53.4053 11.5153 53.2443 11.7347L53.0087 12.0553C52.9345 12.1564 52.8692 12.261 52.8138 12.369C52.7872 12.422 52.7553 12.4932 52.718 12.5835L53.423 13.1162L53.4878 13.0308C53.4579 12.9429 53.4682 12.8487 53.5177 12.7485" fill="white"/>
<path d="M64.6096 20.9528L62.639 21.0304L63.9719 19.5596L63.9576 19.5277L63.9581 19.5282L63.5703 18.6808L63.4196 18.7495C63.4294 18.8055 63.4245 18.8615 63.4043 18.915C63.3916 18.9479 63.3724 18.9783 63.3513 19.0053L61.7519 20.9897L60.3203 21.6451L60.6487 22.3608L62.0798 21.7059L64.9817 21.7639L64.6096 20.9528Z" fill="white"/>
<path d="M36.4984 2.2307L36.3334 4.79975C36.3148 5.08743 36.2706 5.2951 36.2009 5.42372C36.0904 5.65249 35.8764 5.75608 35.5582 5.73595C35.2387 5.71484 35.0384 5.58426 34.9583 5.34419C34.9053 5.20722 34.8881 4.99612 34.9068 4.70843L35.0717 2.1389L34.9343 2.13055H34.9348L34.0049 2.07115L33.9941 2.23561C34.0481 2.25377 34.0948 2.2847 34.1326 2.3279C34.2278 2.43738 34.2367 2.60037 34.2357 2.6691L34.108 4.65689C34.0796 5.10167 34.1193 5.4517 34.2278 5.70699C34.4316 6.17583 34.8592 6.43111 35.5111 6.47284C36.1626 6.51457 36.6187 6.31574 36.8793 5.87734C37.0193 5.63777 37.1037 5.29559 37.1322 4.85129L37.2971 2.28176L36.4984 2.2307Z" fill="white"/>
<path d="M29.1566 2.61571L29.161 6.04585L27.7928 2.89947L26.6484 3.13757L26.6494 3.14101L26.375 3.19845L26.4094 3.36291C26.4673 3.36635 26.5218 3.38402 26.5699 3.41642C26.7216 3.51755 26.7677 3.73455 26.7717 3.75566C26.7717 3.75566 27.0716 5.20194 27.0716 5.20292L27.0741 5.18329L27.5184 7.32031L28.2509 7.16763L27.6632 4.33839C27.646 4.25739 27.6215 4.14349 27.5896 3.9972C27.5572 3.8509 27.5326 3.73798 27.5164 3.65845L28.9534 7.02183L29.7173 6.86326L29.6996 3.20434C29.7163 3.28436 29.7394 3.39728 29.7678 3.54456C29.7963 3.69134 29.8194 3.80573 29.8366 3.88723L30.4247 6.71647L31.1577 6.56379L30.2877 2.38056L29.1566 2.61571Z" fill="white"/>
<path d="M17.2075 8.71899L16.6026 9.22809C16.3685 9.04399 16.1235 8.9836 15.8677 9.04693C15.7253 9.08375 15.5923 9.15347 15.4686 9.25804C15.232 9.45735 15.121 9.72 15.1357 10.047C15.151 10.3744 15.3262 10.7377 15.6625 11.1368C16.0008 11.5384 16.3223 11.7539 16.6282 11.7824C16.9335 11.8104 17.1913 11.7363 17.4019 11.559C17.6081 11.3857 17.7215 11.1776 17.7416 10.9346C17.7622 10.6916 17.6974 10.4495 17.5477 10.209L16.8672 10.7819L16.4082 10.2365L17.6336 9.20501L19.1098 10.9591L18.7024 11.3023L18.2973 10.9464C18.3096 11.2011 18.2949 11.4 18.2536 11.5428C18.1849 11.7903 18.0317 12.0136 17.7951 12.213C17.4053 12.5409 16.9595 12.6597 16.4583 12.5694C15.9448 12.4859 15.4681 12.1825 15.0277 11.6587C14.5825 11.1295 14.3566 10.5953 14.3497 10.0553C14.3434 9.51528 14.5554 9.06363 14.987 8.70132C15.3606 8.38663 15.7499 8.23886 16.1539 8.25899C16.558 8.27912 16.909 8.43229 17.2075 8.71899Z" fill="white"/>
<path d="M54.6398 13.8071C54.6556 14.19 54.8377 14.5616 55.1853 14.922C55.526 15.2755 55.8819 15.4591 56.254 15.4738C56.6262 15.488 56.9531 15.3594 57.2339 15.0889C57.5084 14.8248 57.6375 14.54 57.6232 14.2352C57.6139 14.0393 57.5359 13.8095 57.3905 13.5469L57.0577 12.9475C56.9291 12.7162 56.8554 12.5552 56.8373 12.4644C56.8073 12.324 56.8466 12.2012 56.957 12.0952C57.0763 11.9798 57.2123 11.9347 57.365 11.9587C57.5172 11.9838 57.6655 12.0702 57.8093 12.2194C57.9384 12.3529 58.0204 12.4899 58.0557 12.6303C58.1083 12.8399 58.0469 13.0397 57.8716 13.2278L58.4077 13.7835C58.7244 13.4585 58.8697 13.1104 58.8432 12.7388C58.8162 12.3667 58.6625 12.0353 58.3812 11.7437C58.0445 11.3946 57.6979 11.2174 57.3424 11.213C56.986 11.2086 56.6703 11.3387 56.3949 11.6043C56.093 11.8949 55.9609 12.2022 55.9992 12.5262C56.0203 12.7172 56.1337 12.9926 56.339 13.35L56.5486 13.7138C56.6723 13.9254 56.745 14.0972 56.768 14.2298C56.7901 14.3638 56.7499 14.4797 56.6482 14.5773C56.4745 14.7452 56.2776 14.7786 56.0581 14.679C55.9423 14.626 55.8186 14.5312 55.6875 14.3947C55.468 14.1669 55.3758 13.945 55.4121 13.729C55.4322 13.6112 55.5044 13.4752 55.6281 13.322L55.0954 12.7702C54.7753 13.0785 54.6236 13.4241 54.6398 13.8071Z" fill="white"/>
<path d="M61.3599 15.3555L63.0978 17.9408L62.4699 18.3625L61.8278 17.4081L58.9106 19.3694L58.459 18.6983L61.3766 16.7365L60.732 15.7777L61.3599 15.3555Z" fill="white"/>
<path d="M67.0065 48.5792L59.6686 45.4996L59.4688 45.9625L66.6894 49.1948L67.0065 48.5792Z" fill="white"/>
<path d="M64.6013 53.2421L57.8618 49.0309L57.3262 49.8748L63.9488 54.2122L64.6013 53.2421Z" fill="white"/>
<path d="M61.7661 57.0844L55.7232 52.0194L54.7168 53.1785L60.5716 58.5022C60.5716 58.5022 61.2796 57.7393 61.7661 57.0844" fill="white"/>
<path d="M58.7632 60.4048L53.3143 54.6236C52.9412 54.9392 51.8008 55.9206 51.8008 55.9206L56.7297 61.99C57.4455 61.423 58.7632 60.4048 58.7632 60.4048Z" fill="white"/>
<path d="M51.021 65.7763L47.4014 58.8242C47.4014 58.8242 45.3129 59.8728 44.2383 60.2558L46.8805 67.5107C46.8805 67.5107 49.0504 66.8215 51.021 65.7763" fill="white"/>
<path d="M55.1819 63.2583L50.5927 56.8477C50.5927 56.8477 49.1248 57.8865 48.2637 58.3553L52.1789 65.2539C52.1789 65.2539 53.5108 64.4571 55.1819 63.2583" fill="white"/>
<path d="M3.17969 48.5418L10.2565 45.4995L10.4568 45.9624L3.217 49.1201L3.17969 48.5418Z" fill="white"/>
<path d="M5.41797 53.0931L12.0637 49.0311L12.5998 49.8746L6.18284 54.0254L5.41797 53.0931Z" fill="white"/>
<path d="M8.25195 56.954L14.2011 52.0191L15.208 53.1787L9.52003 58.3345C9.52003 58.3345 8.73847 57.6089 8.25195 56.954Z" fill="white"/>
<path d="M11.3867 60.1623L16.6117 54.6236C16.9848 54.9392 18.1252 55.9206 18.1252 55.9206L13.2891 61.8967C12.5738 61.3297 11.3867 60.1623 11.3867 60.1623Z" fill="white"/>
<path d="M18.959 65.6832L22.5231 58.8239C22.5231 58.8239 24.6116 59.8725 25.6862 60.2554L23.0067 67.5669C23.0067 67.5669 20.9296 66.7279 18.959 65.6832Z" fill="white"/>
<path d="M14.7617 63.128L19.3323 56.848C19.3323 56.848 20.8002 57.8863 21.6613 58.3552L17.8394 65.0117C17.8394 65.0117 16.4333 64.3269 14.7617 63.128Z" fill="white"/>
<path d="M33.3629 64.5461C33.2637 64.4013 33.1184 64.3213 32.9284 64.3075C32.7895 64.2967 32.6673 64.3277 32.5627 64.3979C32.3977 64.5083 32.3045 64.7086 32.2829 65.0003C32.2647 65.2462 32.301 65.4342 32.3918 65.5638C32.4827 65.6944 32.6319 65.7666 32.8396 65.7823C32.9515 65.7902 33.0595 65.7656 33.1636 65.7087C33.3565 65.6041 33.4645 65.4063 33.4856 65.1151C33.5033 64.881 33.4621 64.6915 33.3629 64.5461ZM37.1642 64.472L36.2673 66.34L37.3036 66.2585L37.1642 64.472ZM41.0745 66.5143C41.2203 66.6287 41.3842 66.6679 41.5654 66.6311C41.7431 66.5958 41.8693 66.5 41.9444 66.3464C42.02 66.1917 42.0357 66.0081 41.993 65.7946C41.9449 65.5575 41.8501 65.3866 41.7087 65.2835C41.5674 65.1809 41.4122 65.1466 41.2443 65.1804C41.1069 65.2079 40.9949 65.2727 40.9066 65.3763C40.7745 65.53 40.7352 65.7425 40.7897 66.0135C40.8339 66.2325 40.9287 66.3994 41.0745 66.5143V66.5143ZM32.3712 67.7951L32.114 67.7956C31.9927 67.7411 31.8788 67.6704 31.7733 67.5801C31.5391 67.3778 31.4173 67.099 31.407 66.7445L32.2181 66.8044C32.2279 66.9277 32.2721 67.0303 32.3501 67.1132C32.4287 67.1952 32.5367 67.2414 32.6761 67.2517C32.9441 67.2713 33.144 67.1368 33.274 66.8476C33.3452 66.6886 33.4002 66.4529 33.4385 66.1397C33.3575 66.2276 33.2731 66.2934 33.1862 66.3361C33.0266 66.4166 32.8361 66.448 32.6133 66.4318C32.2838 66.4073 32.0001 66.2723 31.762 66.0258C31.5234 65.7794 31.4203 65.4416 31.4517 65.013C31.4846 64.5697 31.6392 64.2202 31.9161 63.9634C32.192 63.7081 32.5352 63.5947 32.9441 63.6252C33.5745 63.6718 33.9859 63.983 34.1788 64.5574C34.2888 64.8839 34.3246 65.3046 34.2863 65.8206C34.2495 66.3213 34.1543 66.7342 34.0021 67.0597C33.8352 67.4161 33.6064 67.6582 33.3202 67.7932H33.3197H33.3202L32.3712 67.7951ZM29.242 67.3872L28.4197 67.236L28.9376 64.4195L27.9774 64.2432L28.0775 63.6973C28.3333 63.7327 28.514 63.7479 28.619 63.744C28.7874 63.7381 28.9318 63.6909 29.053 63.6026C29.136 63.5422 29.2062 63.4538 29.2646 63.3389C29.2985 63.2687 29.3191 63.2167 29.3255 63.1809L29.9927 63.3036L29.242 67.3872ZM36.9845 63.6816L37.8976 63.6104L38.0999 66.1967L38.5683 66.1603L38.6178 66.7966L38.15 66.8334L38.2192 67.7239L37.4229 67.7863L37.3532 66.8952L35.715 67.0239L35.6595 66.313L36.9845 63.6816ZM39.8619 63.9452C39.9384 63.7258 40.0587 63.5368 40.2232 63.3792C40.3867 63.2216 40.5997 63.1165 40.8614 63.0635C41.2394 62.9874 41.5605 63.0233 41.8236 63.172C42.0873 63.3208 42.2655 63.553 42.3582 63.8691L41.5615 64.0297C41.5482 63.9639 41.5084 63.8976 41.4417 63.8289C41.3302 63.7184 41.1874 63.6811 41.0136 63.7165C40.7534 63.769 40.5973 63.9521 40.5462 64.2663C40.5182 64.4396 40.5251 64.6856 40.5663 65.0047C40.641 64.8662 40.7387 64.7572 40.8594 64.6767C40.9797 64.5957 41.1236 64.5383 41.2919 64.5049C41.6533 64.4322 41.9739 64.4951 42.2542 64.6934C42.535 64.8922 42.7137 65.1824 42.7903 65.5638C42.8669 65.9438 42.8217 66.3017 42.6533 66.637C42.4849 66.9723 42.1629 67.1888 41.6852 67.285C41.1722 67.3881 40.7514 67.2502 40.422 66.8702C40.1653 66.5737 39.9841 66.1603 39.8776 65.6306C39.8147 65.3198 39.7769 65.0651 39.7637 64.8648C39.7406 64.5093 39.7735 64.203 39.8619 63.9452V63.9452ZM43.616 60.4523C43.616 60.4523 40.0411 61.8774 34.9624 61.8774C29.8842 61.8774 26.3239 60.4523 26.3239 60.4523L23.8457 67.8094C26.7854 68.8418 31.1247 69.6562 34.9687 69.6562C38.8127 69.6562 43.102 68.804 46.0412 67.7721L43.616 60.4523Z" fill="white"/>
</svg>
